<?xml version="1.0" encoding="utf-8"?>
<!-- Generator: Adobe Illustrator 25.2.3, SVG Export Plug-In . SVG Version: 6.00 Build 0)  -->
<svg version="1.1" id="Layer_1" xmlns="http://www.w3.org/2000/svg" xmlns:xlink="http://www.w3.org/1999/xlink" x="0px" y="0px"
	 viewBox="0 0 820 380" style="enable-background:new 0 0 820 380;" xml:space="preserve">
<style type="text/css">
	.st0{fill:#00B3E6;}
	.st1{fill:none;}
	.st2{display:none;}
</style>
<g id="Layer_1_1_">
	<g>
		<g>
			<path class="st0" d="M225,232.4c-5.3,0-9.7,3.9-10.5,9l-41.7-1.9c0.2-0.9,0.3-1.9,0.3-2.9c0-1.4-0.2-2.8-0.6-4.1l15.3-9
				c1.9,2.6,5,4.3,8.5,4.3c5.9,0,10.6-4.8,10.6-10.6c0-5.9-4.8-10.6-10.6-10.6c-5.9,0-10.6,4.8-10.6,10.6c0,1.6,0.4,3.1,1,4.5
				l-15,8.8c-2.4-5.5-7.9-9.4-14.2-9.4c-8.6,0-15.5,7-15.5,15.5c0,1.9,0.3,3.7,1,5.4l-26.5,7c-0.2-4.1-1.9-7.9-4.7-10.6l5.1-6.6
				c1.1,0.4,2.3,0.6,3.5,0.6c5.9,0,10.6-4.8,10.6-10.6c0-5.9-4.8-10.6-10.6-10.6c-5.9,0-10.6,4.8-10.6,10.6c0,3.9,2.1,7.2,5.1,9.1
				l-4.7,6.2c-2.6-1.9-5.7-3-9.2-3c-0.7,0-1.4,0.1-2.1,0.1l-4.1-26c6.9-1.6,12.1-7.7,12.1-15.1c0-8.6-7-15.5-15.5-15.5
				c-2.6,0-5,0.6-7.1,1.7L71.8,156c2.7-1.3,4.9-3.3,6.4-5.8h0.4l9.5,2.8c-0.1,0.5-0.1,1.1-0.1,1.7c0,5.9,4.8,10.6,10.6,10.6
				c5.9,0,10.6-4.8,10.6-10.6c0-5.9-4.8-10.6-10.6-10.6c-4.6,0-8.4,2.9-9.9,6.9l-9.4-2.8c0.8-1.9,1.3-4,1.3-6.2c0-1-0.1-2.1-0.3-3
				l26.7-12.2c2.8,3.2,7,5.3,11.6,5.3c8.6,0,15.5-7,15.5-15.5c0-2.9-0.8-5.6-2.2-8l0,0L149.2,92c2.1,1.3,4.6,2.2,7.2,2.3v7.7
				c-5.4,0.5-9.6,5.1-9.6,10.6c0,5.9,4.8,10.6,10.6,10.6c5.9,0,10.6-4.8,10.6-10.6c0-5.5-4.2-10-9.6-10.6v-7.7
				c2.4-0.2,4.6-0.9,6.6-2l0,0l18.8,21.4c-2,2.6-3.1,5.8-3.1,9.4c0,8.6,7,15.5,15.5,15.5s15.5-7,15.5-15.5c0-1.8-0.3-3.6-0.9-5.2
				l5.7-3.7c1.9,2.4,4.9,4,8.3,4c5.9,0,10.6-4.8,10.6-10.6c0-5.9-4.8-10.6-10.6-10.6c-5.9,0-10.6,4.8-10.6,10.6
				c0,1.7,0.4,3.4,1.2,4.8l-5.4,3.5c-2.6-5-7.8-8.3-13.8-8.3c-4.3,0-8.2,1.7-11,4.5l-18.4-21c1.9-1.5,3.5-3.4,4.6-5.6l16.5,2.7
				c1.1,4.7,5.3,8.3,10.4,8.3c5.9,0,10.6-4.8,10.6-10.6c0-5.9-4.8-10.6-10.6-10.6c-5.9,0-10.6,4.8-10.6,10.6V86l-15.5-2.5
				c0.5-1.5,0.7-3.1,0.7-4.8c0-8.6-7-15.5-15.5-15.5s-15.5,7-15.5,15.5c0,4.8,2.2,9,5.5,11.9l-16.7,16.1h-0.1
				c-2.5-3.1-6.2-5.2-10.4-5.7V89.3c5.1-0.8,8.9-5.2,8.9-10.5c0-5.9-4.8-10.6-10.6-10.6c-5.9,0-10.6,4.8-10.6,10.6
				c0,5.7,4.5,10.4,10.2,10.6v11.4L118,101c-8.4,0.3-15,7.1-15,15.5c0,3.2,0.9,6.1,2.6,8.5l-25.8,11.8h-0.2
				c-0.9-2.6-2.5-4.8-4.6-6.6l10-17.8l0.1-0.2c0.9,0.2,1.8,0.4,2.8,0.4c5.9,0,10.6-4.8,10.6-10.6S93.8,91.3,88,91.3
				c-5.9,0-10.6,4.8-10.6,10.6c0,4.2,2.4,7.7,5.9,9.5L73.4,129c-2.4-1.5-5.3-2.4-8.3-2.4c-8.6,0-15.5,7-15.5,15.5
				c0,8.6,7,15.5,15.5,15.5c1.7,0,3.2-0.3,4.7-0.7L82.2,180v0.4c-3.1,2.2-5.3,5.5-6.1,9.3l-9-2.7H67c0.2-0.9,0.4-1.8,0.4-2.7
				c0-5.9-4.8-10.6-10.6-10.6c-5.9,0-10.6,4.8-10.6,10.6c0,5.9,4.8,10.6,10.6,10.6c4.2,0,7.8-2.4,9.5-5.9l0,0l9.4,2.9
				c0,0.4,0,0.7,0,1.1c0,5.4,2.7,10.1,6.9,12.9v0.1l-6,7.5c-1.8-1.5-4.2-2.4-6.7-2.4c-5.9,0-10.6,4.8-10.6,10.6
				c0,5.9,4.8,10.6,10.6,10.6c5.9,0,10.6-4.8,10.6-10.6c0-2.5-0.9-4.9-2.4-6.7l6.4-8c2,1,4.3,1.5,6.7,1.5c0.4,0,0.9,0,1.3-0.1
				l4.1,25.5l-0.9,0.9c-6.1,2.1-10.4,7.9-10.4,14.7c0,8.6,7,15.5,15.5,15.5c5.2,0,9.7-2.5,12.6-6.4l0.2,0.1l21.8,10
				c-0.2,0.9-0.3,1.7-0.3,2.7c0,5.9,4.8,10.6,10.6,10.6c5.9,0,10.6-4.8,10.6-10.6c0-5.9-4.8-10.6-10.6-10.6c-4.2,0-7.8,2.4-9.5,6
				l-21.6-10c0.9-1.7,1.5-3.6,1.7-5.6l27.2-7.1h0.3c2.6,4.9,7.8,8.1,13.7,8.1c3.9,0,7.4-1.4,10.1-3.7h0.1l10.6,10.1
				c-0.6,1.3-0.9,2.7-0.9,4.2c0,5.9,4.8,10.6,10.6,10.6c5.9,0,10.6-4.8,10.6-10.6c0-5.9-4.8-10.6-10.6-10.6c-3.6,0-6.8,1.8-8.7,4.5
				l-10.2-9.8c1.4-1.5,2.4-3.3,3.1-5.3l42.2,1.9c0.3,5.6,4.9,10.1,10.6,10.1c5.9,0,10.6-4.8,10.6-10.6
				C235.6,237.2,230.8,232.4,225,232.4z"/>
		</g>
		<path class="st1" d="M573.3,201.5c-0.2,0-0.6,0-0.7,0.4l-0.5,0.7c-0.2,0.2-0.5,0.5-0.8,0.6c1.1-0.3,2-0.8,2.9-1.4
			C573.9,201.7,573.6,201.6,573.3,201.5z"/>
		<path class="st1" d="M570.5,203.2c-1.3-0.1-2.5,0.2-3.7,0.7c1.6,0,3.1-0.3,4.5-0.7C571.1,203.3,570.8,203.3,570.5,203.2z"/>
		<path d="M571.3,203.2L571.3,203.2L571.3,203.2z"/>
		<g>
			<path d="M284.5,143.2c6.3,0,11,1.9,14.2,5.6c1.8,2.1,3.2,5.2,4.4,9.3H321c-0.3-5.3-2.2-10.7-5.9-16c-6.6-9.4-17-14.2-31.3-14.2
				c-10.6,0-19.4,3.5-26.3,10.6c-7.9,8.1-11.9,19.6-11.9,34.6c0,13.8,3.5,24.7,10.5,32.6c7,7.9,16.5,11.8,28.7,11.8
				c9.8,0,17.9-2.9,24.2-8.8c6.3-5.8,10.2-13.4,11.7-22.8H303c-1.2,4.4-2.7,7.7-4.4,9.9c-3.2,4.1-7.9,6.2-14,6.2
				c-6,0-10.9-2.4-14.8-7.2s-5.8-12-5.8-21.6s1.8-17,5.5-22.3C273.1,145.8,278.1,143.2,284.5,143.2z"/>
			<path d="M386.7,210.8c-0.5-0.8-0.9-2.2-1-4.4c-0.1-2.9-0.1-5.3-0.1-7.3v-29c0-7.6-2.7-12.8-8.1-15.6c-5.4-2.7-11.6-4.1-18.5-4.1
				c-10.7,0-18.2,2.8-22.6,8.4c-2.8,3.6-4.3,8.1-4.7,13.6h16c0.4-2.4,1.2-4.4,2.4-5.8c1.6-1.9,4.5-2.9,8.4-2.9c3.5,0,6.2,0.5,8,1.5
				s2.7,2.8,2.7,5.4c0,2.1-1.2,3.7-3.6,4.7c-1.3,0.6-3.5,1.1-6.6,1.5l-5.7,0.7c-6.4,0.8-11.3,2.2-14.6,4.1c-6,3.5-9.1,9.1-9.1,16.9
				c0,6,1.9,10.6,5.6,13.9c3.8,3.3,8.5,4.9,14.3,4.9c4.5,0,8.6-1,12.2-3.1c3-1.7,5.6-3.9,7.9-6.3c0.1,1.4,0.3,2.7,0.5,3.8
				s0.5,2.3,1,3.6h18v-2.4C388,212.2,387.2,211.6,386.7,210.8z M369.1,190.5c-0.1,5.5-1.7,9.3-4.7,11.4c-3,2.1-6.4,3.1-10,3.1
				c-2.3,0-4.2-0.6-5.8-1.9c-1.6-1.3-2.4-3.3-2.4-6.1c0-3.2,1.3-5.5,3.9-7c1.5-0.9,4.1-1.6,7.6-2.3l3.8-0.7c1.9-0.3,3.4-0.7,4.4-1.1
				c1.1-0.4,2.1-0.9,3.2-1.6V190.5z"/>
			<path d="M434.3,177.1c-9.9-2.2-15.7-3.7-17.3-4.6c-1.6-0.9-2.4-2.2-2.4-4.1c0-1.5,0.8-2.8,2.3-3.9c1.5-1.1,4.1-1.7,7.7-1.7
				c4.4,0,7.5,1.1,9.3,3.4c1,1.2,1.6,2.9,1.8,5.1h16.6c-0.7-7.7-3.6-13.2-8.6-16.3c-5-3.2-11.4-4.7-19.4-4.7
				c-8.3,0-14.8,2.1-19.4,6.3s-6.9,9.2-6.9,15.1c0,5,1.5,8.8,4.4,11.4c2.9,2.7,8,4.9,15.2,6.7c10,2.4,15.8,4,17.3,5
				c1.6,1,2.3,2.4,2.3,4.2c0,1.9-1,3.4-2.9,4.4s-4.5,1.5-7.8,1.5c-5.6,0-9.4-1.1-11.4-3.3c-1.2-1.2-1.9-3.3-2.3-6.3H396
				c0,6.5,2.4,11.9,7.1,16.1c4.8,4.2,12.1,6.3,22.1,6.3c9.8,0,17-2,21.7-6s7-9.1,7-15.4c0-4.8-1.6-8.7-4.9-11.9
				C445.8,181,440.9,178.6,434.3,177.1z"/>
			<path d="M500.5,150.5c-5.1,0-9.5,1.4-13.2,4.2c-2,1.6-3.9,3.8-5.7,6.5v-9.3h-15.9v88.2h16.4v-33c1.8,2.7,3.5,4.7,5.4,6.1
				c3.4,2.5,7.6,3.8,12.6,3.8c7.9,0,14.4-2.9,19.5-8.8c5-5.8,7.6-14.3,7.6-25.5c0-10.6-2.6-18.6-7.7-24
				C514.2,153.2,507.9,150.5,500.5,150.5z M506.4,197.7c-2.4,3.6-6,5.3-10.7,5.3c-3.2,0-6-0.9-8.3-2.6c-3.9-3-5.9-8.1-5.9-15.5
				c0-4.6,0.6-8.5,1.8-11.5c2.3-5.7,6.4-8.5,12.5-8.5c5,0,8.7,1.9,10.9,5.6c2.2,3.8,3.4,8.1,3.4,13
				C510.1,189.4,508.8,194.2,506.4,197.7z"/>
			<path d="M544.1,210.4c0,0,0-0.1,0.1-0.1C544.1,210.3,543.8,210.3,544.1,210.4z"/>
			<path d="M591,162.5c-2.9-4.3-6.5-7.4-10.9-9.4s-9.4-3-14.9-3c-9.3,0-16.8,2.9-22.6,8.8c-5.8,5.9-8.7,14.3-8.7,25.2
				c0,11.7,3.2,20.1,9.6,25.3l0,0c0.3,0.2,0.5,0.4,0.8,0.6c0,0,0,0.1-0.1,0.1h0.1c1.2,0.9,2.5,1.8,3.8,2.5
				c5.3,3.1,11.2,4.6,17.7,4.6c4.9,0,9.3-0.7,13.1-2.1V209c0-1.4-0.2-2.5-0.7-3.6c-0.1-0.4-0.5-0.7-0.5-1.2
				c-0.4-1.2-1.2-1.9-2.4-2.1c-0.3-0.1-0.7-0.2-1-0.3c-0.9,0.6-1.9,1-2.9,1.4l0,0c-1.4,0.4-2.9,0.6-4.5,0.7c-0.2,0-0.4,0-0.6,0
				c-3.2,0-6-0.6-8.3-1.9c-0.3-0.1-0.5-0.3-0.8-0.5c-4.2-2.6-6.4-7-6.6-13.4h46.1c0.1-5.5-0.1-9.7-0.5-12.6
				C595.3,170.6,593.6,166.3,591,162.5z M550.9,177.2c0.6-4.1,2.1-7.4,4.4-9.8c2.3-2.4,5.6-3.6,9.9-3.6c3.9,0,7.2,1.1,9.8,3.4
				c2.6,2.3,4.1,5.6,4.4,10L550.9,177.2L550.9,177.2z"/>
			<path d="M576.4,200.1c1.8,0.8,3.5,1.8,4.6,3.3c1.1,1.4,2.4,2.9,3,4.6c0.5,1.1,0.9,2.4,0.9,3.7c0,0.1,0,0.2,0,0.4
				c1.7-1.2,3.3-2.5,4.7-4c3.6-3.9,5.7-7.7,6.1-11.4h-16.9C578.1,198,577.3,199.2,576.4,200.1z"/>
			<path d="M640.1,150.4c-0.2,0-0.5,0-0.8,0c-5,0-9,1.3-12.1,3.9c-1.9,1.5-4.1,4.4-6.7,8.7v-11h-15.8v63.3h16.7V185
				c0-5.1,0.6-8.8,1.9-11.3c2.3-4.3,6.8-6.5,13.4-6.5c0.5,0,1.2,0,2,0.1c0.8,0,1.7,0.1,2.8,0.2v-17
				C640.8,150.4,640.3,150.4,640.1,150.4z"/>
		</g>
		<g>
			<path class="st0" d="M585,214c0.1-0.7,0-1.3-0.1-1.9c0-0.1,0-0.2,0-0.4c0-1.4-0.4-2.6-0.9-3.7c-0.6-1.7-1.9-3.2-3-4.6
				c-1.1-1.6-2.9-2.5-4.6-3.3c-0.2-0.1-0.4-0.2-0.6-0.3c-1.1-0.4-2.2,0-3.2-0.6c0-0.1-0.1-0.1-0.4-0.1c-1.1,0-2,0.1-3-0.4
				c-0.1-0.1-0.5-0.1-0.6,0c-1.1,0.7-2.6,0-3.6,1.1c-0.7,0.2-1.5,0.4-2.4,0.7c-0.5,0.1-1,0.4-1.4,0.4c-1.4,0-2.2,0.5-3.3,1l0,0
				c2.4,1.3,5.1,1.9,8.3,1.9c0.2,0,0.4,0,0.6,0c1.1-0.4,2.4-0.8,3.7-0.7c0.3,0.1,0.6,0.1,0.8,0l0,0c0.3-0.1,0.5-0.3,0.8-0.6l0.5-0.7
				c0.1-0.4,0.5-0.4,0.7-0.4c0.3,0.2,0.6,0.3,0.9,0.3c0.4,0.1,0.7,0.1,1,0.3c1.1,0.2,2,0.9,2.4,2.1c0,0.5,0.4,0.9,0.5,1.2
				c0.5,1.1,0.7,2.2,0.7,3.6v6.1v3.4c0,0.5,0,1-0.1,1.2c-0.6,1.1,0.4,2,0.1,2.9c0.9,1,1.4,2.1,2.6,2.6c1.4,0.6,1.4,0.6,1.6-0.9
				c0.1-0.9,0.5-1.9,0.7-2.9c0.6-1.4,1.2-4.1,1.2-5.6C585,215.4,584.9,214.6,585,214z"/>
			<g>
				<path class="st0" d="M513.5,291.2c-0.6,0.1-1,0.6-1,1.2C513.3,292.3,513.7,291.8,513.5,291.2z"/>
				<path class="st0" d="M537.1,303.3c0,0,0-0.2,0.2-0.4C537.1,303,536.9,303,537.1,303.3z"/>
				<path class="st0" d="M542.4,299.7c0.1,0,0.2,0,0.1-0.2C542.6,299.5,542.4,299.6,542.4,299.7z"/>
				<path class="st0" d="M538.2,302.5c0.2,0,0.4-0.1,0.5-0.5C538.5,302.2,538.2,302.2,538.2,302.5z"/>
				<path class="st0" d="M542.1,299.7c-1.2,0.4-2.4,1.4-3.3,2.1v0.1c0.4,0,0.6,0,1-0.1c0.1-0.1,0.5-0.1,0.7-0.4
					c0.2-0.6,0.7-0.7,1.5-0.7c0.1-0.4,0.4-0.6,0.4-1H542.1z"/>
				<path class="st0" d="M537.4,303c0.2,0,0.7,0,0.9-0.5C537.8,302.5,537.5,302.5,537.4,303z"/>
				<path class="st0" d="M634.2,298.5c0.6-0.5,1-1.1,1-2c-0.9,0.4-1.1,0.9-1.1,1.9c-1.4,0.7-2.1,1.6-2.6,3.2
					C632.8,301,633.6,299.9,634.2,298.5z"/>
				<path class="st0" d="M653.5,275c0-0.1-0.1-0.1-0.1-0.1C653.4,275,653.4,275.5,653.5,275z"/>
				<rect x="653" y="274.7" class="st0" width="0.4" height="0.2"/>
				<path class="st0" d="M638.7,291.4c0.5,0,0.5-0.2,0.6-0.7c0.4-0.2,0.4-0.7,0.4-1.2c-0.5,0.2-0.4,0.9-0.5,1.2
					c-0.4,0-0.5,0.1-0.9,0.7c-0.5,0.2-0.6,0.6-0.5,1.4C638.3,292.4,638.7,292,638.7,291.4z"/>
				<path class="st0" d="M641.2,287.7c0.7-0.5,1.1-1.4,1.1-2C641.4,286.1,641.2,286.7,641.2,287.7z"/>
				<path class="st0" d="M646.5,284.8c-0.1-0.2-0.1-0.2-0.2-0.2C646.3,284.8,646.3,285,646.5,284.8z"/>
				<path class="st0" d="M641.2,287.7c-1,0.1-1.5,0.7-1.5,1.7C640.7,289.3,641.2,288.4,641.2,287.7z"/>
				<path class="st0" d="M636,295.9c0.7-0.4,0.7-0.9,0.7-1.4C636,294.8,636,295.4,636,295.9z"/>
				<path class="st0" d="M636.7,294.5l1.1-0.6v-1.1C636.9,292.9,636.7,293.4,636.7,294.5z"/>
				<path class="st0" d="M557,255.4c0.7,0,1.1-0.4,1.4-1C557.7,254.4,557.2,254.8,557,255.4z"/>
				<path class="st0" d="M557,255.4c-1.1,0.1-1.6,0.5-2.2,1.4C555.7,256.7,556.6,256.4,557,255.4z"/>
				<path class="st0" d="M554.7,256.8c-1.5,0.4-2.7,1.1-3.7,2.2h1c0.6-0.6,1.2-1.1,2.1-1.4C554.3,257.5,554.6,257.1,554.7,256.8z"/>
				<path class="st0" d="M565.4,254.4l0.2-0.2C565.4,254.2,565.3,254.3,565.4,254.4z"/>
				<path class="st0" d="M568.6,252.3h-0.2l0.2,0.2h0.1C568.7,252.3,568.7,252.3,568.6,252.3z"/>
				<path class="st0" d="M564.3,254.6c-0.1,0-0.4,0.2-0.4,0.4h0.5c0.2,0,0.2-0.1,0.2-0.1C564.6,254.6,564.3,254.4,564.3,254.6z"/>
				<path class="st0" d="M562.4,255.3c0,0.1-0.2,0.2-0.2,0.4c0,0,0.2,0.2,0.4,0.2c0.6,0,1.1-0.4,1.2-1
					C563.3,254.9,562.8,254.8,562.4,255.3z"/>
				<path class="st0" d="M556.5,259.5c0.1-0.1,0.5-0.2,0.5-0.5c0-0.1-0.4-0.2-0.5-0.4c-0.1,0.2-0.4,0.6-0.4,0.9H556.5z"/>
				<path class="st0" d="M550.9,263.1c0-0.2,0-0.2,0.1-0.4h-0.5C550.7,262.9,550.7,262.9,550.9,263.1z"/>
				<path class="st0" d="M561.4,256.2L561,256v0.5C561.3,256.2,561.3,256.2,561.4,256.2z"/>
				<path class="st0" d="M569.9,251.7c0,0.2,0,0.2,0.1,0.4c0.4-0.4,1-0.1,1.1-0.9h-1.2C569.9,251.5,569.7,251.6,569.9,251.7z"/>
				<path class="st0" d="M566.1,253.2l-0.4,0.7c0.7,0,1.4-0.2,2-0.9v-0.2c0,0-0.1-0.1-0.2-0.1H567
					C566.9,253.2,566.5,253.1,566.1,253.2z"/>
				<path class="st0" d="M559.7,257.2c-0.4,0.1-0.9,0-0.9,0.5c0.4,0,0.9,0.1,0.9-0.4c0.7,0,1.2-0.2,1.4-0.9h-0.9
					C559.9,256.7,559.8,257.1,559.7,257.2z"/>
				<path class="st0" d="M551,262.8c1,0.1,1.4-0.6,1.7-1.1l-0.1-0.1c-0.2,0-0.5-0.2-0.6-0.2c-0.1,0.4-0.4,0.5-0.5,0.7L551,262.8z"/>
				<path class="st0" d="M595.8,240.5c0.7,0.2,1.5,0.2,1.9,0.4h1.1c1.4-0.1,2.1-0.9,3-1.4c0.5-0.7,0.1-1.5,0.1-2.1
					c-0.1-1.1-1.1-1.7-1.7-2.6c-0.2,0-0.5-0.4-0.7-0.4c-1.6-0.1-2.9,0.4-4.1,1.2C593.3,237.1,593.8,239.9,595.8,240.5z"/>
				<path class="st0" d="M577.7,249c0.6-0.1,1.5-0.4,2.1-0.6c0.6-0.2,1.2-0.5,1.9-0.5c0.9-0.1,1.5-0.2,2.1-0.6
					c0.7-0.1,1.7-0.2,2.4,0.4c0.5,0.2,1,0.2,1.2,0.6c0.9,1,2.1,0.6,3.1,1.2h0.5c0.5-0.6,0.7-1.1,1.1-1.7c0.1,0,0-0.2,0-0.2
					c-0.2-0.5-0.5-1-0.9-1.5c-0.1-0.6-0.6-1-1.1-1.2c-1.6-0.9-3.1-1-4.7-1.1c-1.1-0.2-2.2-0.2-3.2,0c-1,0-1.7,0.5-2.7,0.5
					c-0.5,0.2-1.4,0.1-1.9,0.7c0.5,0,0.7,0.1,1.1,0.1c0,0,0.1,0,0.1,0.2h-0.1c-0.5,0.1-0.9,0.2-1.1-0.4c-0.5,0-1.1,0-1.6,0.1
					c-2.7,1-5.5,1.7-8.2,3.1c-3.1,1.4-6.3,3-9.6,4.6c-0.5,0.1-0.7,0.5-0.7,1c0.2-0.2,0.6-0.2,0.7-0.4c1-0.5,2-1,3.1-1.4
					c0.1-0.2,0.4-0.2,0.7-0.2c0-0.1,0.1-0.2,0.1-0.2c2-1,3.8-2,6-2.9c0.6-0.4,1.2-0.7,1.9-0.9h0.5c0,0.1-0.1,0.5-0.2,0.5
					c-0.2,0.1-0.4,0.1-0.5,0.4l-1,0.2c-0.1,0.1-0.4,0.5-0.1,0.5c0.1,0,0.2,0.1,0.5,0.1c0.4-0.5,0.9-0.6,1.5-0.5
					c0.5-0.7,1.5-0.7,2.1-1.1c0.2-0.2,0.7-0.1,1-0.1c-0.2,0.6-1.1,0.6-1.7,1.1c-0.4,0.1-0.9,0.1-1.4,0.1c-1.1,1-1.9,1.4-3.1,1.4
					c0.1,0,0.1-0.2,0.1-0.4c0.1-0.1,0.1-0.1,0.1-0.2l-0.2-0.2c-0.5,0.4-1.1,0.4-1.4,0.9c-0.9,0-1.5,0.6-2.2,0.9
					c-0.6,0.4-1.2,0.7-1.9,0.5c-0.4,0.4-0.5,0.6-0.6,0.9c-0.9,0.5-1.6,0.7-2.4,1.1c-0.4,0.1-0.7,0.5-0.7,0.7c0.4,0.1,0.7,0,1-0.1
					c1-0.5,1.6-1.1,2.7-1.1c1.1-1,2.2-1.6,3.7-2l0.4-0.7h1.4c-0.5,0.6-1.1,0.7-1.7,0.7c0,0.2,0,0.2-0.2,0.4
					c-0.5,0.7-1.6,0.7-2.2,1.5c-0.5,0.1-0.7,0.1-1.2,0.1c-0.5,0.6-0.7,1.2-1.7,1.2c-0.1,0-0.5,0.1-0.5,0.4c-0.6,0.6-1.7,0.7-2.4,1.6
					c-0.2,0.1-0.4,0.2-0.5,0.2c-0.6,0-1,0.4-1.2,0.6c-0.4,0.5-0.9,1-1.5,1c-0.4-0.1-0.6,0.1-0.7,0.5c-0.5,0.2-1,0.2-1.5,0.2
					c-0.1,0.7-0.7,1-1.5,1c0,0.1-0.1,0.4-0.4,0.4c0-0.2,0.1-0.4,0.4-0.4c0.2-0.2,0.4-0.6,0.5-1h-0.6c-0.6,0.5-1.2,0.9-1.7,1.4
					c-0.1,0.1-0.4,0.2-0.4,0.5c0.4,0,0.7-0.2,1-0.2c0.4-0.1,0.5-0.1,0.9-0.1c-0.2,0.7-1,0.7-1.6,1.1c0,0-0.2-0.1-0.2-0.4v-0.4
					c-0.1,0-0.4-0.2-0.6-0.4c0-0.1-0.2-0.4,0-0.5l4.8-3.2l0.5-0.4c0.7,0,1.2-0.5,1.9-0.9l2.2-1.4c0.1-0.2,0.4-0.4,0.4-0.5
					c-0.2,0-0.5-0.2-0.6,0c-1.4,0.6-2.5,1.4-3.6,2c-0.1,0.2-0.2,0.5-0.5,0.7h-0.6l-2,1.2L548,259c-0.6,0.5-1.1,0.5-1.5-0.1
					c-1.1-2.5-3.1-4.6-4.5-7.2c0-0.1-0.1-0.1-0.2-0.2c-0.9-0.6-1.1-1.5-1.7-2.2l-2.5-3.3c-1.1-2-2.5-3.7-3.6-5.8
					c-0.9-1.7-2-3.5-1.7-5.7c-0.7-0.6-0.2-1.6-0.2-2.2c0.2-1.4,0.5-2.9,1-4.1c0.6-1.5,1.5-2.7,2.2-4c1.1-1.5,2.4-2.7,3.7-4.1
					c0.4-0.6,1.1-1.4,1.7-1.9c0.7-0.5,1.6-1,1.9-1.9c1.6-0.9,2.7-2.1,4.3-3c0.4-0.1,0.8-0.3,1.2-0.6c-1.3-0.8-2.6-1.6-3.8-2.5
					c-0.1,0-0.1,0-0.1,0s0.1,0,0.1-0.1c-0.3-0.2-0.5-0.4-0.8-0.6l0,0c-1,0.7-2,1.5-3,2.3l-2,1.7c-1,0.9-2,1.9-2.9,2.9
					c-0.7,0.6-1,1.4-1.6,1.9c-0.9,0.5-1,1.1-1.5,1.6c-0.6,0.6-1.1,1.2-1.4,2c-0.4,0.6-0.5,1.2-0.9,2l-0.7,2
					c-0.4,0.7-0.9,3.6-0.9,4.6c0,0.6,0.5,1.2,0,1.9c0.5,0.5,0.4,1.4,0.5,2c0,0.2,0.1,0.6,0.4,0.7c0.1,0.6,0.2,1.4,0.6,1.7
					c1,2.1,1.9,4.3,3.2,6.3c0.7,1.1,1.7,2,2.5,3c0.1,0.4,0.5,0.5,0.5,0.6c0.1,1.2,1.1,2.1,1.9,3.1c1.4,1.7,2.6,3.5,3.8,5.2l3.2,5.1
					c0.4,0.5,0.1,0.9-0.1,1c-2.5,1.9-5,3.6-7.3,5.5c-0.7,0.4-1.4,1.1-2.1,1.7c-1.6,1.1-3.3,2.2-4.8,3.6c-2,2-4.5,3.7-6.3,5.8
					c-1,1.1-2.1,1.9-2.9,3l-2.6,2.9c-1.4,1.5-2.7,3.1-3.8,4.8c-0.5,0.6-1.1,1.2-1.4,1.9c-0.2,0.4-0.2,0.6-0.4,0.9
					c0.9-0.4,1.5-1,1.7-1.6c0.9-1.5,2.1-2.5,2.9-3.7c1-1.4,2.1-2.4,3.2-3.6c0.6-0.7,1.1-1.5,1.7-2.1c0.5-0.6,1.1-1.1,1.7-1.7
					l0.9-0.9h0.6c0-0.6,0.1-0.9,0.6-1.2c0.9-0.4,1.2-1,2-1.6c1.9-2.1,4.2-3.6,6.5-5.5l1.4-0.9c1.1-1,2-2,3.1-2.6
					c2-1.2,3.8-2.7,5.8-4c0.1-0.1,0.2-0.1,0.2,0v0.5l-2.7,1.9c-1.1,0.9-2.2,1.5-3,2.5c0,0.1,0,0.2-0.1,0.4h0.9
					c0-0.2,0.2-0.4,0.5-0.4c0.1-0.5,0.5-0.5,0.9-0.5c0,0.5-0.5,0.5-0.9,0.5c0,0.2-0.1,0.2-0.5,0.4c-0.1,0.7-0.6,1-1.2,0.9
					c0-0.4,0.1-0.5,0.4-0.9c-0.7-0.1-1.1,0.2-1.4,0.9c-0.2,0-0.5,0-0.6,0.1c-0.6,0.5-1.4,1-1.7,1.7h1c0-0.2,0.1-0.5,0.5-0.5l0.4-0.6
					l0.5-0.6c0.4,0,0.5-0.1,0.9-0.1c-0.4,0.7-0.9,1.4-1.7,1.4c0,0.4-0.2,0.5-0.5,0.5c-0.2,0.6-0.6,1-1.4,0.9
					c0.2-0.2,0.2-0.5,0.4-0.9h-0.6c-0.6,0.6-1.2,1-1.6,1.7h1c0-0.1,0.1-0.2,0.2-0.2c0,0.1-0.1,0.2-0.2,0.2c-0.2,0.7-0.6,0.5-1,0.5
					c0,0.4-0.1,0.5-0.5,0.5c0,0.4-0.1,0.4-0.2,0.5c0-0.1,0.1-0.4,0.2-0.5v-0.5c-1,0-1.4,0.6-1.7,1.5c0.1,0,0.1,0.1,0.4,0.1
					c-0.2,0.1-0.2,0.1-0.4,0.1v-0.2c-1,0-1,0-1,0.7c-0.2,0-0.5,0-0.6,0.2c-0.7,0.6-1.6,1.2-2.1,2.2c0.2,0.1,0.2,0.1,0.4,0.1
					c-0.4,0.2-0.4,0-0.4-0.1c-0.4,0-0.7,0-0.9,0.2c-0.4,0.1-0.6,0.4-1,0.6c0.1,0.5-0.4,0.9-0.5,1.4c-0.5,0-0.7,0.1-1.1,0.4
					c-0.1,0.5-0.5,1-0.6,1.5c0.1,0,0.1,0.1,0.4,0.1c-0.2,0-0.2,0.2-0.4,0.2v-0.4c-0.4,0-0.6,0-0.7,0.1c-0.9,1-1.6,2-2.5,2.7v0.6
					c-0.2,0.2-0.5,0.4-0.5,0.5c-0.2,0.1-0.4,0.4-0.4,0.5h0.4v-0.4h0.5c0,0.2-0.1,0.4-0.5,0.4c0,0.4-0.1,0.5-0.4,0.5
					c0,0.1-0.2,0.2-0.2,0.2c-0.1,0-0.1-0.1-0.1-0.2h0.4v-0.5c-0.4,0-0.4,0.4-0.5,0.5c-0.2,0.1-0.5,0.2-0.6,0.5
					c-0.5,0.6-1.1,1.2-1.5,2c-0.5,0.7-1.1,1.1-1.5,1.9c-0.2,0.6-0.7,0.9-1.1,1.4c-0.4,1-1.4,1.6-1.9,2.7c0,0.1-0.4,0.1-0.4,0.1
					c-0.1-0.1-0.2-0.2-0.2-0.5c0-0.1,0.1-0.2,0.1-0.4c0.1-0.2,0.1-0.5,0.1-0.9c-0.1,0.1-0.4,0.1-0.4,0.4c-0.5,0.7-0.9,1.4-1.1,2.2
					c-0.2,0.1-0.2,0.2-0.2,0.5c0.4,0.2,0.4,0.6,0,0.7c-0.2,0.4-0.5,0.5-0.6,0.7c-1,1.1-1.6,2.6-1,4.2c0.2,0.2,0,0.7,0.2,1.1
					c0.5,0.7,0.2,1.9,0.9,2.7c1.1,2,2,3.1,3.7,4.5c1.1,0.6,2.2,1.4,3.5,1.6c1.4,0.1,2.5,0.6,3.8,0.6c0.6-0.2,1.6,0,2.2-0.4
					c0.9-0.2,1.2,0.5,2.1,0.1c0.1,0,0.5,0.2,0.6,0c1.2-0.6,2.7-0.1,4-1.1c0.1-0.1,0.6-0.1,1.1-0.1c0.6-0.1,2-0.6,2.6-1.1
					c0.7-0.2,1.6-1,2.5-1.1c1.5-0.1,2.6-1,3.6-1.9c0.4-0.5,0.9-0.9,1.4-0.9c1,0,1.5-0.5,2.2-1.1c0.6-0.5,1.2-0.7,2-1.2l1.1-1
					c0.2-0.2-0.4-0.5,0-0.7c0.1-0.1,0.4-0.1,0.7-0.5l0.6-0.6c0.4-0.5,0.6-1.1,1.1-1.6c0.9-0.6,1.2-1.6,2-2.4c0.7-1,1.1-2.1,1.7-3.1
					c0.5-0.9,0.6-1.9,1.1-2.9c0.1-0.5-0.4-0.5-0.5-0.5h-0.1c0.4-1.2,0.7-2.7,1.2-4c0.1-0.2,0.2-0.6,0.2-1.1c0.2-0.2-0.2-0.6,0-1
					c-0.2-0.6,0-1.2-0.2-1.9c-0.1-0.5,0-1.1,0-1.7v-2.7c-0.6-1.2-0.9-2.6-1.1-3.8c-0.6-2.2-1.5-4.3-2.4-6.3l-1.4-2.5
					c-0.1-0.4-0.2-0.7-0.1-1.2c0-0.1,0-0.5,0.1-0.6h0.6c0.2-1.1,0.4-1.2,1.5-1.5c0.1-0.4,0.7-0.6,1.2-0.7v0.1
					c0.2,0.6,0.5,0.9,0.9,0.5c0.5-0.2,1.1-0.6,1.4-1c0.4-0.1,0.5-0.4,0.6-0.6c-0.1,0-0.2,0-0.4-0.1c-0.2,0-0.4,0-0.5-0.1
					c0.1,0,0.1,0,0.1-0.2c0.4-0.2,0.6-0.4,1.1-0.4c0.1-0.4,0.4-0.5,0.6-0.4c0.4,0,0.6,0.5,1,0.1c0.2-0.1,0.5-0.5,0.7-0.7h-0.5
					c-0.1,0-0.1-0.1-0.2-0.1v-0.2c0.6-0.5,1.2-0.9,2.1-0.9c0.1-0.5,0.6-0.5,0.9-0.5c0.5-1.1,1.1-1.7,2.5-2c0.6,0,1.2-0.5,1.7-0.6
					c0.1-0.1,0.5-0.1,0.7-0.1h0.1c0-0.6,0.5-0.5,0.9-0.5v-0.5c-0.1-0.1-0.1-0.1-0.4-0.1c0.4-0.4,0.4,0,0.4,0.1
					c0.5,0,0.6-0.1,1.1-0.2c0.5-0.4,1-0.7,1.6-0.7c0.1-0.4,0.7-0.4,1.1-0.6c0.2-0.1,0.2,0,0.2,0.4v0.2c0.6-0.2,1.4-0.4,2-0.4
					c1.2-0.9,2.7-0.9,4-1.5C577.2,249.2,577.5,249.2,577.7,249z M544.2,210.3c-0.1,0-0.1,0.1-0.1,0.1
					C543.8,210.3,544.1,210.3,544.2,210.3z M541.3,212.1v0.2h-0.1L541.3,212.1z M538.5,214.4L538.5,214.4v0.2V214.4z M537.5,215.4
					c0.2,0.4,0,0.2-0.1,0.1C537.5,215.5,537.5,215.4,537.5,215.4z M536.9,216.2c0,0.1-0.1,0.1-0.1,0.2
					C536.5,216.2,536.7,216.2,536.9,216.2z M535.7,217.1c0.1,0.4,0,0.4-0.1,0.4C535.6,217.3,535.7,217.3,535.7,217.1z M535.4,217.6
					c0,0,0,0.1-0.1,0.1C535.1,217.6,535.2,217.6,535.4,217.6z M533.8,219.3l0.2,0.2l-0.2,0.1V219.3z M533.5,219.8l-0.2,0.2
					C533.4,220,533.4,219.8,533.5,219.8z M533.1,220.3c0,0.1-0.1,0.4-0.2,0.4C532.9,220.5,533,220.3,533.1,220.3z M532.6,220.8
					l-0.1,0.1C532.4,220.8,532.5,220.8,532.6,220.8z M531.5,222.4c0,0-0.1,0-0.1-0.2c0.1,0,0.1,0,0.1-0.1l0.2,0.1
					C531.8,222.4,531.5,222.4,531.5,222.4z M553.6,279.9v0.1V279.9L553.6,279.9z M546.8,262.4c0.1,0.4,0,0.2-0.2,0.4
					C546.5,262.6,546.5,262.4,546.8,262.4z M546.4,262.8c0,0.4-0.1,0.5-0.4,0.5C546,262.9,546.3,262.8,546.4,262.8z M546.3,265.1
					v0.2l-0.2-0.2H546.3z M545.9,263.3c-0.1,0.6-0.6,1-1.2,0.7C544.8,263.4,545.3,263.3,545.9,263.3z M545.2,266.5v0.2
					c-0.2,0-0.4,0-0.4-0.1C544.8,266.6,544.9,266.5,545.2,266.5c0-0.2,0.1-0.4,0.1-0.4C545.4,266.2,545.3,266.2,545.2,266.5z
					 M543.2,265c0.2-0.5,0.6-0.5,1-0.5c0-0.1,0.1-0.2,0.5-0.2c0,0.1-0.1,0.2-0.5,0.2C544.1,265,543.7,265,543.2,265
					c0,0.4-0.1,0.5-0.2,0.5C542.9,265.1,543.1,265,543.2,265z M542.7,265.5c0,0.2-0.1,0.5-0.2,0.5
					C542.4,265.6,542.6,265.5,542.7,265.5z M540.5,269.6c0-0.2,0.2-0.5,0.5-0.5c0.2-0.1,0.2-0.2,0.2-0.2c0.2,0.2,0,0.2-0.2,0.2
					C540.9,269.5,540.8,269.5,540.5,269.6c-0.1,0.2-0.1,0.2-0.1,0.4C540.1,269.6,540.3,269.6,540.5,269.6z M539.3,270.1
					c0.2,0.4,0,0.4-0.1,0.4C539.2,270.4,539.3,270.2,539.3,270.1z M539.1,270.6c0,0.1,0,0.1-0.1,0.4
					C538.7,270.6,539,270.6,539.1,270.6z M536.9,272.3c0.1-0.2,0.1-0.2,0.5-0.5c0.1-0.1,0.1-0.1,0.1-0.2c0.4,0.2,0,0.2-0.1,0.2
					C537.4,272.2,537.1,272.3,536.9,272.3c0,0.1-0.1,0.4-0.1,0.4C536.5,272.3,536.7,272.4,536.9,272.3z M535.9,270.6
					c0,0.1-0.1,0.4-0.2,0.4C535.6,270.7,535.7,270.6,535.9,270.6z M533.8,274.7l0.2,0.2h-0.2V274.7z M533.1,272.8
					c0,0.1-0.1,0.1-0.1,0.4C532.9,272.8,533,272.8,533.1,272.8z M531.9,273.8c-0.1,0.1-0.1,0.2-0.5,0.2
					C531.4,273.9,531.5,273.8,531.9,273.8z M530.9,274.3h0.5c0,0.1-0.1,0.2-0.5,0.2V274.3z M530,275.5c0.1-0.4,0.1-0.4,0.4-0.5
					c0-0.1,0.2-0.4,0.5-0.4c0,0.2-0.1,0.4-0.5,0.4C530.4,275.4,530.3,275.5,530,275.5c0,0.1-0.2,0.2-0.2,0.2
					C529.5,275.5,529.8,275.7,530,275.5z M527.4,277.6L527.4,277.6v0.1V277.6z M526.3,279c-0.4,0.1-0.4-0.1-0.4-0.1
					S526.2,278.9,526.3,279z M524.1,281.1c0,0.1-0.1,0.2-0.5,0.2C523.6,281.2,523.7,281.1,524.1,281.1z M523.6,281.6
					c0,0-0.1,0.1-0.1,0.2C523.1,281.6,523.5,281.6,523.6,281.6z M523,282.5c0,0,0.1,0,0,0.2C522.9,282.7,522.9,282.7,523,282.5
					L523,282.5z M522,283.5v0.1V283.5L522,283.5z M520.8,284.3c0.1,0,0.2,0.1,0.2,0.1c0,0.1-0.1,0.1-0.2,0.1V284.3z M517.5,308.7
					L517.5,308.7v-0.1V308.7z M520.2,309.2c-0.1,0-0.1-0.1,0-0.1V309.2z M526.2,308.4c-0.6,0.1-1.1,0.6-1.7,0.5c-1,0-1.9,0-2.6,0.4
					c-0.1,0-0.5-0.1-0.5-0.2c0.1-0.1,0.1-0.5,0.4-0.5c0.7,0,1.4,0,2.2-0.1c0.6,0,1.2-0.2,1.9-0.4c0.1,0,0.4,0.1,0.5,0.1
					C526.2,308.2,526.2,308.4,526.2,308.4z M527.5,310.2L527.5,310.2v-0.1V310.2z M527.4,308.9c-0.1,0-0.4-0.2-0.5-0.2
					c0.1,0,0.4-0.1,0.4-0.1c0.1,0,0.1,0.1,0.2,0.1C527.4,308.7,527.4,308.9,527.4,308.9z M527.3,307.9c-0.2,0-0.2,0-0.4-0.1
					c0.1,0,0.1-0.2,0.4-0.2c0.1,0,0.2,0.2,0.2,0.2C527.5,307.9,527.4,307.9,527.3,307.9z M529,307.4c0,0-0.1,0-0.4-0.1
					c0.2,0,0.4-0.2,0.4-0.2c0.1,0,0.2,0.2,0.5,0.2C529.3,307.4,529.2,307.4,529,307.4z M532.3,308.9c0-0.2-0.2-0.2-0.2-0.4h0.5
					c0,0,0,0.1,0.1,0.1C532.5,308.7,532.4,308.7,532.3,308.9z M535.7,307.4v-0.1h0.1L535.7,307.4z M536.5,306.9l0.2-0.1h0.1
					L536.5,306.9z M537.8,306.4c-0.2,0-0.2,0-0.4-0.1c0.1,0,0.4,0,0.5-0.1c0,0,0,0.1,0.1,0.1C538,306.4,537.8,306.4,537.8,306.4z
					 M539,305.6h-0.2l0.2-0.2V305.6z M543.6,301.5c-0.4-0.2,0-0.2,0.1-0.2C543.6,301.2,543.6,301.3,543.6,301.5z M543.7,301.1
					c0.1-0.2,0.1-0.4,0.5-0.4C544.2,300.8,544.1,301.1,543.7,301.1z M544.9,301.5c-0.2-0.2,0-0.2,0-0.2V301.5z M545.2,301.1
					c0-0.2,0.1-0.4,0.5-0.4C545.4,300.8,545.3,301.1,545.2,301.1z M545.7,300.6l0.1-0.2C546,300.7,545.8,300.6,545.7,300.6z
					 M544.2,300.6c0.4-1,0.6-1.5,1.7-1.7C545.7,299.6,544.9,300.2,544.2,300.6z M545.7,297.5c-0.2,0.2-0.2,0.4-0.5,0.4
					C545.2,297.7,545.3,297.5,545.7,297.5c0-0.2,0.1-0.5,0.2-0.5C545.9,297.2,545.8,297.4,545.7,297.5z M546,298.9
					c0-0.4,0.2-0.4,0.4-0.5c0-0.2,0.1-0.4,0.5-0.4c0,0.1-0.1,0.4-0.5,0.4C546.4,298.6,546.3,298.9,546,298.9z M546,297v-0.9h0.4
					C546.4,296.4,546.4,296.9,546,297z M546.5,296.1c0-0.4,0.2-0.4,0.4-0.5C546.9,295.9,546.8,296.1,546.5,296.1z M548.1,298.1
					c-0.1,0.2-0.1,0.2-0.2,0.2c0,0.2-0.2,0.5-0.5,0.5c0,0.2-0.2,0.4-0.5,0.4c0,0.2-0.1,0.4-0.1,0.4c-0.4-0.4,0-0.1,0.1-0.4
					c0.1-0.1,0.1-0.2,0.5-0.4c0-0.4,0.1-0.4,0.5-0.5l0.2-0.4V298.1z M548.5,297.4c-0.2-0.4,0-0.4,0.1-0.4
					C548.6,297.2,548.6,297.2,548.5,297.4z M549.4,296.4l-0.1,0.2c0-0.2,0.1-0.4,0.1-0.4S549.6,296.4,549.4,296.4z M550.1,295.1
					c0,0.1-0.2,0.4-0.2,0.4c-0.1,0-0.1-0.2-0.1-0.4c-0.1-0.1,0-0.4,0-0.4h0.4v0.4H550.1z M550.3,294.6c0,0,0-0.1,0.1-0.2
					C550.5,294.6,550.4,294.6,550.3,294.6z M550.3,293.3c-0.4,0.4-0.6,0.9-0.6,1.5c-0.6,0.4-0.9,1-0.9,1.9h0.4
					c0,0.2-0.1,0.2-0.4,0.4v-0.4h-0.9c0,0.6-0.4,1.1-1,1.2c0-0.6,0.2-1.1,1-1.2c-0.2-0.7,0.2-1.1,0.4-1.5c0.9-1,1.4-2.1,1.9-3.2
					c0.1-0.1,0.2-0.2,0.4-0.2C550.5,292.2,550.5,292.5,550.3,293.3z M547,295.6c0-0.1,0-0.1,0.1-0.4
					C547.4,295.6,547.2,295.6,547,295.6z M550.9,293.7L550.9,293.7v-0.1V293.7z M551.9,291.8h-0.2l0.2-0.1V291.8z M551.4,290.8
					c0,0.2-0.5,0.5-0.9,0.6c0-0.7,0.2-1.4,0.5-2c0.4-0.5,0.4-1.1,0.6-1.7l0.2-0.2v0.4c0,0.1,0.1,0.2,0.1,0.6
					C551.9,289.2,551.4,289.9,551.4,290.8z M552.4,291c-0.2,0-0.2,0-0.2-0.2c0.2,0,0.4-0.1,0.4-0.1c0.1,0,0.1,0,0.1,0.1
					C552.6,290.8,552.5,291,552.4,291z M552.5,289.1l0.1-0.1c0,0,0.1,0,0.1,0.1H552.5z M553.1,290.1c-0.4-0.4,0-0.4,0.1-0.4
					C553.2,289.9,553.1,290.1,553.1,290.1z M553,287.7l0.1-0.2L553,287.7L553,287.7z M553.1,285.1c0-0.1-0.1-0.1-0.1-0.1l0.1-0.2
					l0.1,0.2L553.1,285.1z M553,276.9c0-0.1,0.1-0.1,0.1-0.2c0,0.1,0.1,0.2,0.1,0.2v0.9c0,0,0,0.1-0.1,0.2c0-0.1-0.1-0.2-0.1-0.4
					V276.9z M552.6,275.7l0.1,0.1h-0.1V275.7z M552.6,281.2L552.6,281.2c0,0.1,0,0.4,0,0.5l-0.1-0.1
					C552.5,281.4,552.6,281.2,552.6,281.2z M552.5,282.7l0.1-0.2c0.4,0,0.6,0.9,0.5,1c0,0.1-0.1,0.1-0.4,0.1
					C552.5,283.6,552.4,283,552.5,282.7z M552.1,285.2l0.2,0.2c0,0.2,0.1,0.6,0,0.9c0,0.2-0.2,0.4-0.2,0.4c-0.1,0-0.1-0.1-0.1-0.5
					v-0.7C552,285.5,552.1,285.5,552.1,285.2z M550.1,269.8c0.1,0.7,0.4,1.5,0.6,2.4c0.1,0.2,0.1,0.7,0.2,1.1
					c0.2,0.2,0.4,0.5,0.4,0.7c0.1,0.4,0.1,0.9,0.1,1.1c0,0.4,0.4,0.9,0.1,1.1c0,0.4,0.2,0.6,0.2,1c0.1,0.4,0.1,0.6,0.1,1v2.2
					c0,0.7,0.1,1.6-0.1,2.4c-0.2,0.7-0.4,1.6-0.4,2.4c0,0.9-0.6,1.5-0.5,2.2c-1.1,2.5-1.9,5-4,7.1c-0.5,0.2-1.1,0.7-1.1,1.6
					c-0.6,0.2-1.1,1.1-1.6,1.6c-0.2,0.2,0,0.6,0.4,0.6c0-0.2,0.1-0.4,0.5-0.4c-0.2,0.1-0.2,0.4-0.5,0.4c-0.5,0.9-1.5,1.6-2.1,2.2
					c-0.1,0.1-0.5,0.1-0.6,0.1c-0.1,0.6-0.7,1-1.5,0.7l-0.2,0.7l-4.6,2.6c-0.4,0.4-0.7,0.5-1,0.4c-0.1,0.4-0.4,0.5-0.6,0.5H533
					c-0.5,0.7-1.2,1-2.2,1c-0.1,0.2-0.2,0.4-0.6,0.2c-0.1,0-0.1,0-0.1-0.1h0.1c0.1-0.1,0.5-0.1,0.6-0.1c0.4-0.7,1-0.9,1.6-1h0.6
					c0.2-0.4,0.4-0.5,0.6-0.4c0.2,0,0.5-0.1,0.9-0.1c0.1-0.1,0.2-0.5,0.2-0.6c0.2-0.1,0.2-0.4,0-0.4l-0.1-0.1
					c-1.9,0.7-3.6,1.6-5.5,2.2c-1.1,0.7-2.5,0.5-3.6,1.1c-0.4,0.1-0.6-0.1-1-0.4c-0.2-0.1-1,0-1.4-0.1c-1.9,0-3.4,0.5-5-0.1
					c-0.4-0.1-0.9-0.1-1.1-0.1c-1.1,0.1-2.1-0.4-3.2-0.7c-0.7-0.2-1.2-1.1-1.2-1.9c-0.2-1.1,0.2-2.2,0.6-3.2c1-0.2,0.5-1.4,1.1-1.9
					c0-1,0.5-1.6,0.7-2.2c1.1-1.7,2.2-3.5,3.6-5.1c1.5-2.2,3.5-4.3,5.2-6.6l0.6-0.5l1.5-1.4c1.1-1.5,2.2-2.7,3.6-3.7l1.1-1
					c1.6-1.2,3.1-2.9,4.8-4c1-0.6,1.7-1.4,2.5-2.2c1-0.7,2.1-1.4,3.1-2.2c1-0.6,1.9-1.2,2.4-2.4c-0.1,0-0.1-0.1-0.2-0.1
					c0.2-0.2,0.2,0,0.2,0.1c0.5-0.1,0.9-0.4,1.2-0.5c0,0,0-0.1,0.2-0.4c0.2,0,0.6,0,0.9-0.2c0.4-0.4,0.7-0.6,1-1
					c0.4-0.2,0.1-0.6,0-0.7c-0.1-0.2,0-0.4,0-0.5h0.4c0.2,0.1,0.5,0.5,0.6,0.6C548.8,266.6,549.6,268,550.1,269.8z M553.5,260.4
					c0,0,0-0.2,0.1-0.4C553.7,260.4,553.6,260.4,553.5,260.4z M554.3,259.9v-0.1c0-0.2,0.2-0.2,0.2,0
					C554.6,259.8,554.6,259.9,554.3,259.9z M572.6,250.4c-0.1,0-0.4,0-0.5-0.2c0.1,0,0.1-0.1,0.1-0.1h0.6
					C572.7,250.1,572.7,250.4,572.6,250.4z M579.2,247.9c0,0.2-0.2,0.2-0.4,0.2s-0.1-0.2-0.1-0.2c0-0.1,0.1-0.1,0.2-0.1
					c0.2-0.1,0.4-0.1,0.4-0.1C579.3,247.7,579.3,247.9,579.2,247.9z M582.3,247.1c-0.5,0-0.9,0.1-1.1-0.4h1.1l0.2,0.2L582.3,247.1z
					 M582.6,246.1c-0.1,0-0.1,0-0.2-0.1c0.1,0,0.2-0.1,0.4-0.1c0,0,0,0.1,0.1,0.1C582.8,246.1,582.6,246.1,582.6,246.1z
					 M582.8,244.1l0.1,0.1h-0.2L582.8,244.1z M582.5,245l-0.2,0.2c-0.1,0-0.2,0-0.5-0.2H582.5z M581.1,246.6h-0.6l-0.1-0.1
					c0.1,0,0.1-0.1,0.1-0.1C580.9,246.4,581.1,246.4,581.1,246.6z M580.3,245.4c0.1,0,0.2,0.1,0.2,0.2c0,0-0.1,0-0.2,0.2
					c0-0.2-0.2-0.2-0.4-0.4C580,245.5,580.3,245.4,580.3,245.4z M580.4,247.2c0.1,0,0.1,0.2,0.2,0.2c-0.1,0-0.1,0.1-0.2,0.1h-1
					C579.5,247.1,580,247.1,580.4,247.2z M576.9,245.5v0.1h-0.2L576.9,245.5z M575.3,245.9h0.5l0.1,0.1l-0.1,0.1
					c-0.2,0.2-0.4,0-0.5,0c-0.2,0-0.2,0-0.4-0.1C575.1,246,575.1,245.9,575.3,245.9z M571.6,247.6l-0.2-0.1c0,0,0-0.2,0.1-0.2h0.5
					L571.6,247.6z M572.8,247.1h-0.7c0-0.1,0.4-0.4,0.5-0.4h0.7C573.3,247,573.2,247.1,572.8,247.1z M573.6,246.6
					c0-0.1,0.1-0.2,0.4-0.2c0,0,0.2,0,0.2,0.1c0,0,0,0.1-0.2,0.1L573.6,246.6L573.6,246.6z M573.7,249.9c-0.4,0-0.5,0-0.6,0.1
					c0-0.5,0.1-0.5,0.6-0.5c0,0,0,0.2,0.1,0.2C573.7,249.7,573.7,249.9,573.7,249.9z M573.8,247.6c0,0,0-0.1,0.1-0.1
					c1.1-0.4,2.2-0.9,3.3-1.1h0.7c0.2-0.7,0.6-0.5,1.1-0.5c0,0.1,0.1,0.1,0.1,0.1c0,0.1-0.1,0.1-0.1,0.1c-0.4,0-0.9,0-1.1,0.2v0.1
					C576.7,247.1,575.4,247.7,573.8,247.6z M575.8,249c-0.4,0.5-0.7,0.5-1.1,0.4c0,0-0.2,0-0.2-0.1c0,0,0.2,0,0.2-0.2L575.8,249
					c0-0.5,0.4-0.3,0.7-0.3C576.6,249.2,576.1,249,575.8,249z M577.7,248.2c0.1,0,0.1,0,0.1,0.1h-0.1c-0.4,0.2-0.6,0.2-1,0.2
					C576.9,247.9,577.3,248.1,577.7,248.2z"/>
				<path class="st0" d="M663.7,265.2c0.6,0,1.5-0.2,2.1-1.2c-0.6,0-1.1,0.4-1.6,0.5C663.8,264.5,663.2,264.9,663.7,265.2z"/>
				<path class="st0" d="M642.8,277.4c0.2-0.7,1-1.1,1.6-1.2c0.4-0.2,1-0.5,1.1-1.2h-0.1c-2.4,0.7-4.1,2.1-6.1,3.2v0.6
					c0.4,0,0.9-0.5,1.6-0.6C641.4,277.5,642.2,277.1,642.8,277.4z"/>
				<path class="st0" d="M646.8,274.2c-0.5,0-1-0.1-1.2,0.5C646.3,274.9,646.5,274.9,646.8,274.2z"/>
				<path class="st0" d="M657.9,272.7c0.7-0.4,1.7-0.7,2.6-1.2l-0.2-0.4c0-0.5-0.1-0.5-0.1-0.5c-0.5,0-0.6,0-0.9,0.5
					c-0.9,0.1-1.7,0.9-3,0.5v0.7C657.1,272.4,657.2,273.2,657.9,272.7z"/>
				<path class="st0" d="M674.2,264l-0.5,0.5c0.7,0,1.7,0,2.6-0.1c0.1,0,0.1-0.6,0.1-1h-1.6C674.4,263.6,674.3,263.8,674.2,264z"/>
				<path class="st0" d="M662.5,269.2l-1.2,0.6c-0.2,0-0.2,0.2-0.2,0.2l0.2,0.2c0.7-0.2,1.5,0,2.4-0.2c0.6-0.2,1.5-0.9,1.5-2.2H664
					C663.9,268.8,663.2,269,662.5,269.2z"/>
				<path class="st0" d="M669.7,265.4v0.5c0.5,0.1,0.6,0.5,1.1,0.5c0.6,0.2,1,0,1.7-0.4c0.4-0.5,0.9-0.6,0.9-1.1c-0.6,0-1.4,0-2,0.4
					C671,265.4,670.4,265.2,669.7,265.4z"/>
				<path class="st0" d="M665.1,267.2v0.6c0.7-0.2,1.2,0,2-0.2c0.1-0.1,0.5-0.4,1.1-0.1c0.4,0.1,0.6,0.1,1-0.2
					c0.1-0.2,0.5-0.6,0.5-1.2c-1.1,0.6-2.1,0.9-3.1,0.6C666.4,267.5,665.8,267.2,665.1,267.2z"/>
				<path class="st0" d="M657.9,268.3c1.7-0.9,3.6-1.7,5.2-2.9v-0.1c-1-0.1-1.9,0.5-3,1c-1.5,0.5-2.2,1.5-3.8,1.5v0.6
					C657,268.3,657.6,268.5,657.9,268.3z"/>
				<path class="st0" d="M773.7,257.2c0-0.2-0.1-0.4-0.4-0.4c-1.1,0.1-2.5-0.1-3.2,0.4c-2.4,1.2-4.8,1.7-7.1,3
					c-2.9,1.1-5.2,1.9-7.9,3.1c-2.7,0.7-5.7,2.2-8.7,3.1c-2.2,0.7-4.1,1.7-6.2,2.6c-2.4,1.1-5.1,1.6-7.3,3c-3,0.7-6.1,1.9-9.6,2
					c-1.5,0.2-2.4-0.1-2.1-1.5c0-0.9,0.1-1.7,0.6-2.4c0.5-2.1,1.1-4.6,1.5-6.8c0.7-3.1,1.5-6.1,2.1-9.1c0.1-0.6,0.1-1.2,0-1.6
					c-0.6-1-1.6-2-2.2-2.9c-0.2-0.2-0.7-0.6-0.9-0.6c-1.1,0-2.2-0.1-3.5,0.6c-1.1,0.5-2.6,1-3.6,1.7c-1.1,0.6-2.1,1.5-3.6,1.9
					c-2,1.2-3.8,2-5.5,3.5c-1.6,1-3.6,1.6-5.1,3c-3.1,1.5-5.2,3.6-7.8,5.7c-2.4,1.9-4.6,3.4-7.1,5.1c-0.2,0.1-0.5,0.1-0.7,0.1
					c0-0.6,0.5-1.2,0.7-1.7c1.1-2.5,2.7-5.1,4.2-7.7c0.1-0.6,0.5-1.1,0.9-1.6c0.1-1.6,1-2.9,2-4.1c0.1-0.2,0.5-0.5,0-1
					c-0.9-1.2-2-2-3.3-2.7c-1.1-0.4-2,0-2.6,1.4c-0.5,1.7-1,3.3-1.7,4.9c-0.9-0.6-1.9-0.7-3.2,0c-2.5,0.1-4.6,1-6.8,1.7
					c-2.7,0.6-5.3,1.5-8.1,2.9c-0.2,0.2-0.2,0.5-0.4,0.6c1,0.2,1.9-0.1,2.5-0.6c1-0.4,2-0.6,3.1-0.6c0.1-0.7,0.9-0.5,1.4-0.7
					c0.2-0.6,1.1-0.5,1.7-0.5c0,0.4-0.2,0.5-0.6,0.5h-1.1c-0.4,1-0.7,0.7-1.4,0.7c0,0.2,0,0.4-0.2,0.4c-2.4,1.1-4.8,2.5-7.1,3.4
					c-1.9,0.7-3.8,1.6-5.6,2.5c-1.5,0.9-3,1.5-4.7,2.2c0,0.5-0.2,0.5-0.2,0c-0.5-0.1,0-0.2,0-0.5c0.2-0.6,1.1-0.6,1.4-1.6
					c-0.4-0.1-0.4-0.5,0-0.6c0-1,0.7-2,1.2-2.9c0.4-0.1,0.5-0.6,0.5-1.2c0.5-1.9,1.5-3.6,2.5-5.1c1-1.4,1.6-2.9,2.2-4.1
					c1.9-3.5,3.1-7.8,4.6-11.5c0-0.2-0.1-0.6-0.1-0.9c-1-1.7-2.5-2.1-3.6-0.5c-0.5,0.2-0.9,0.7-1.1,0.9c-1.5,1.1-3,2.5-4.5,4
					c-0.5,0.5-0.9,0.5-1.1,0.1c-1.9-1.9-4.1-2.1-6.1-2.5c-0.4-0.1-0.9,0-1.5,0.2c-2.1,0.6-4.5,2.1-6.6,2.7c-3.6,2-7.3,4.1-10.8,6.6
					c-2.2,1.4-4.2,3.1-6.1,4.9c-0.6,0.3-1.1,0.6-1.3,0.7c-1.4,0.9-2.5,1.6-4,2.4c-1.5,0.9-3.6,1.7-5,3.2c-0.5,0.5-1.5,1-2.1,1.1
					c-2.6,1.2-4.7,2.9-7.1,4.1c-3.2,1.9-5.7,3.6-8.8,5c-1.5,1.1-3.2,1.5-4.5,2.4c-1.6,0.7-3.1,1.4-4.6,1.7c-1.6,0.6-3.2,1.1-4.7,1.6
					c-1.6,0.4-3.5,0.4-4.6-0.5c-0.4-1.7-0.2-3.1,0.2-4.6c0.7-1.1,1.2-2.1,1.5-3.2c1-3,3-6.1,5-8.8c1-1.7,2.2-3.2,3.5-5.3
					c0.6-1.4,2-2.5,3.7-2.1h0.4c0.5,0,0.9-1,0.5-1.6c-1-0.9-2-1.7-3.1-2.5c-1.4-0.6-2.9-0.4-4,0.7c-1,1.2-2.5,2.5-3.5,3.7
					c-3.2,3.8-5.7,7.9-7.6,12.7c-0.5,1.9-1,3.7-1.4,5.7c-0.2,2.2,0.2,4.5,1.1,6.5c0.6,1.9,1.7,2.9,2.6,4.3c0.1,0.1,0.7,0.4,1,0.4
					c3.2,0.9,6.7,0.9,9.8-0.2c1.6-0.6,3.1-1.2,4.7-1.7c3.5-1.4,6.5-3.3,9.4-5c1.6-1,3.2-2.1,5.1-3c1.6-1.1,3.1-2.6,5.1-3.2
					c1.1-1.4,3.2-2.4,4.8-3.5V269H617c0.5-1,1-1.3,1.8-1.4c-0.7,1.8-0.3,3.7,0.3,5.3c0.9,2,2.2,3.3,4.7,3.2c1.1,0,1.9,0,3.1-0.5
					c0.7-0.7,2-1,3.1-1.6c2.5-1.4,5.1-2.6,7.1-4.6c1.7-2,4.2-3.6,6.2-5.7l5.1-4.5c1.6-1,2.9-2.4,4.5-3.5c2.2-1.7,4.3-3.6,6.2-5.7
					c0.2-0.4,0.5-0.5,0.6-0.6c0.2-0.2,0.5-0.2,0.6-0.4h0.2c0,0.1,0.1,0.4,0.1,0.5c-1,2.1-2.1,4.2-3.1,6.6c-0.9,2-2.1,3.7-2.5,6h0.5
					v0.6c-0.1,0-0.1,0.2-0.1,0.5c-0.2-0.2-0.2-0.5-0.2-0.5c-0.1-0.2-0.1-0.4-0.1-0.6c-1.5,0.9-1.7,2.2-2.1,3.7
					c-0.1,0.1-0.5,0.5-0.5,1c-0.9,0.6-1.2,1.5-1.6,2.4c-0.7,1.2-1.6,2.7-2.9,3.5c-0.1,0.2-0.1,0.9-0.5,1c0.5,0.2,0.7,0.5,0.4,1
					c-0.4,0.2-0.4,0.4-0.9,0.9c-1.2,0.7-2.4,1.6-4,1.9l-0.9,1.1c-2.9,1.2-5.3,3.2-7.8,5.2c-0.9,0.9-1.9,1.2-2.9,2
					c-0.7,1.2-1.5,2.4-3.1,2.4v-0.4c0.7-1,1.6-2,3.1-2c0-0.5,0.2-1.1,0.7-1.5c1-0.9,2.1-1.6,3.5-2.6c0.5-0.5,1.4-0.6,1.5-1.5
					c-0.4,0-0.9,0-1,0.1c-4,3-8.2,5.6-11.8,9.1c-1.4,1.1-2.5,2.4-3.8,3.5c-2.1,2.1-3.8,5-5.8,7.4c-1.5,1.7-2,3.8-2.1,6
					c-0.4,2.9,0.5,6,2.2,8.2c1.9,2.5,3.6,3,6.1,1.5c0.4-0.1,0.5-0.2,0.9-0.6c1.1-0.4,1.7-1.5,2.7-2.1c1.5-1.4,2.7-2.6,4-4.1
					c0.6-0.5,1.2-1.4,1.2-2.4c0.9,0,1.2-0.5,1.7-1.2c1-1.2,1.7-2,2.7-3.4c1.2-1.1,2.6-2.7,3.5-4.6c1-1.6,2-3.2,3-5.1
					c0.2-0.4,1.1,0.4,1.1-0.5c0-0.7,0.4-1.2,0.9-1.5c-0.4-0.7,0.4-1,1.1-1l0.1-0.6c-0.4-0.6-0.1-1.1,0.2-1.5
					c1.4-0.4,1.4-1.5,1.4-2.4c0.2-0.1,0.4-0.4,0.7-0.4v-0.4c0-0.5,0-0.9,0.5-1c1.1-0.5,1.5-1.2,1.5-2.1c0.6-0.1,0.7-0.9,1.1-1.5
					c0.6-1.1,1.5-2.2,2.2-3.4l-0.1-0.4c0-0.2,0.1-0.2,0.1-0.2c0.5-0.1,1-0.6,1.4-1c0-0.5-0.4-1,0.5-1.7c1-0.5,1.7-1,2.9-1.4
					c0-0.1,0.4-0.4,0.6-0.5c1.1-0.7,2.6-1.6,3.7-2.1c1.4-0.5,2.1-1.1,3.2-1.1c0.2-0.6,0.7-0.6,1.2-0.6c0.2-0.5,0.6-0.6,1.2-0.6h0.2
					c0.6-1.1,1.7-1.4,3.1-1.4V265c1.5-1,3.2-1.6,5.1-1.6c0.2-0.1,0.2-0.4,0.5-0.6c1-0.4,2.1-0.6,3.2-0.6c0,0,0-0.2,0.2-0.2
					c1.1-0.6,2.5-1,4.1-1c-1.5,1-2.9,1.5-4.3,1.2c-0.5,0.2-0.6,0.6-0.7,0.6c-0.5,0.2-1,0.2-1,0.6c0.6,0.4,1.5,1,2.6,0.2
					c0.2-0.2,0.6-0.2,1-0.2c1.2-0.4,2.3-0.8,3.4-1c-0.8,1.6-1.7,3.1-2.6,4.5c-0.6,0.5-0.9,1.2-1,1.6c-0.6,1.5-1.4,2.6-2,4.1
					c-0.6,1-1.1,2.5-1.5,3.5c-1.1,2.1,0,4,1,5.7c0.5,0.5,1.5,0.5,1.9,0.4c0.5-0.5,0.7-1,1.2-1.5c2-1,3.6-2.5,4.7-4.2
					c0.5-0.5,1.1-1.2,1.7-1.7c3.3-3.2,6.7-6.6,10.8-9.1c0.7-1.1,2.4-1.1,3.1-1.9c2-1.5,4.1-2.7,6.1-4.1c1.5-0.7,2.5-1.6,4.1-2.4
					c2.6-1,5.5-2.1,8.4-3.1c0.6-0.6,0.7-0.5,0.7,0.4c0,1-0.1,2.1-0.4,2.7c-0.2,1.1-0.6,2.5-1.2,3.7c-1.4,3.8-1.5,7.9-1.4,12
					c0,0.9,0.2,1.6,0.7,2.4c0.5,0.7,1.5,1.7,2.1,2.4c0.6,0.4,1.6,0.9,2.1,1.2c2.1,0.4,4.1,0.4,6.1-0.4c1.7-0.5,3.5-1,5.5-2.1
					c3.2-1.1,7.2-2.6,10.8-4l13.4-5.5c0.4-0.2,0.7-0.4,0.7-0.4c-0.2-0.9,0.1-1.1,1-1.1c0.7,0,1.6-0.1,2.5-0.7c2.6-0.9,5-1.6,7.4-2.6
					C774.9,260.3,773.6,258.9,773.7,257.2z M619.6,265.9c-2.1,1.2-4.1,2.5-6.1,3.6c-1.1,0.6-2.1,1.1-3.3,1.1c0-0.2,0.7-0.7,1.2-1
					c2.6-1.6,5.2-3,7.8-4.6c0.5-0.3,1-0.5,1.5-0.8C620.3,264.7,620,265.3,619.6,265.9z M653.6,248.4c-0.1,0.4-0.6,1.1-1,1.7h1
					c0,0.7-0.6,1.1-1,1.4c-3.3,2.9-6.8,5.8-10.4,8.7l-7.9,5.8l-1.5,0.9c-1.6,0.7-3,2-4.6,2.6c-1,0.4-2.1,1.1-3.6,0.9
					c0.4-1.1,0.9-2.4,1.6-3.1c2.9-3.2,5.8-6.3,9.3-8.6c0-0.4,0-0.4,0.2-0.4c1.1-1.7,2.6-2.9,4.5-3.7c1.7-0.9,3.3-2.5,5.2-3.3
					c1.6-0.6,3-2.1,4.7-2.6c0.5-0.2,0.7-0.6,1.1-1l0.9-0.6c0.5-0.4,1.4-0.2,1.5,0C653.6,247.5,653.9,247.9,653.6,248.4z
					 M646.4,277.5C646.4,277.4,646.4,277.5,646.4,277.5c-0.1,0.6-0.5,0.7-0.9,1.2l-0.1-0.2c-0.5,0-0.5-0.2-0.5-0.2
					C645.5,278.1,645.9,277.9,646.4,277.5z M623.6,292.3c1-1.5,2.5-2.5,3.6-3.5c0.1-0.1,0.4-0.1,0.5,0c-1.1,1.9-2.5,3.2-4.2,4.3
					C623.5,292.8,623.5,292.3,623.6,292.3z M621.5,313.5c0.5-1,1.2-1.7,2.4-1.7C623.5,312.6,623,313.7,621.5,313.5z M643.1,284.2
					c0.5,0,0.7-0.1,1.1-0.5v1.2c-0.6,0.9-1.1,2-1.9,2.9c-1,2-2.1,3.8-3.5,5.5c-0.1,0.1-0.7,0.1-1,0.6l-0.2,1.5
					c-1.4,3-3.3,5.2-5.1,7.6c-1,1.2-2,2.5-2.9,3.7c-1.5,1-2.5,2.2-3.5,3.6c-0.6,0.5-1,1.5-2.2,1.5c-0.1-0.6,0-1.1,0.5-1.2
					c1.2-1.2,2.1-2.5,3.2-3.8c0.5-0.2,0.5-0.9,0.7-1.2c0.1-0.2,0.6-0.2,0.7-0.4c1-1.4,2.4-1.9,2.4-3.5c-1.5,0.9-2.5,2.1-3.3,3.8
					c-0.6,0.7-1.6,1.5-2.1,2.4c-1.5,1.2-3,2.7-4.7,3.7c-0.9,0.6-1.6,0.7-2.7,1c-0.9,0.4-1.6,0-2.1-0.4c-0.6-0.6-0.6-1-0.6-1.9
					c0,0,0-0.2,0.1-0.5c1-2.7,1.7-5.6,4-7.8l1-1.2c0.5-1.4,1.4-2.2,2.6-3.2c0.5-0.6,1.4-1.5,2.1-2.1c1.6-1.5,2.9-3.1,4.8-4.7
					c2.6-2,5.2-4,7.8-5.8c0.9-0.6,1.4-1.1,2-1.5c1.5-0.6,2.7-1.7,3.8-3.1h0.5c0.1,0,0.1,0.5,0.1,0.5c-0.1,0.6-0.4,1-0.6,1.9
					c-0.9,0.1-1.1,0.7-1.4,1.6c-0.5,0.4-0.5,1-0.5,1.5C643.1,285.3,643.1,285,643.1,284.2z M646.3,280.6c0,0.5,0,1-0.7,1.1
					c0,1-0.1,1.6-1.1,1.9v-1c0.2-0.2,0.5-0.6,1.1-0.9C645.5,281.1,645.4,280.7,646.3,280.6c0-0.9,0.1-1.2,0.5-1.6l0.2-0.2
					c0.2,0.2,0.2,0.4,0.2,0.6C647,279.8,646.8,280.6,646.3,280.6z M677.4,260.8H676c0.2-0.4,0.7-0.6,1.2-0.4c0.1,0,0.5,0.1,0.5,0.1
					S677.8,260.8,677.4,260.8z M682.4,259.3h-1.9c0.4-0.4,1.1-0.4,1.6-0.4c0.1,0,0.2,0.2,0.5,0.2
					C682.5,259.3,682.5,259.3,682.4,259.3z M731.5,274.5c-0.4,0-0.4-0.4-0.5-0.4l0.1-0.2h1.4C732.3,274.5,731.9,274.5,731.5,274.5z
					 M733.5,273.8h-0.9c0.2-0.7,1.4-0.4,1.6-0.4C734.2,273.8,734,273.8,733.5,273.8z M743.3,270.1c0.4-0.6,0.5-0.7,0.9-0.7
					s0.7,0.1,1,0.1C744.8,270.3,744.1,270.3,743.3,270.1z M748.4,268.3c-0.7,1-2,1-3,1v-0.2C746.3,268.5,747.3,268.1,748.4,268.3
					c0-0.4,0.5-0.9,1-0.9h0.9C750,268.5,749.3,268.3,748.4,268.3z M770.8,260.4c-1.7,0.9-3.2,2-5.6,2.4c-0.6,0.5-1.9,0.1-2.5,1.1
					c-0.4,0.1-0.6,0.1-0.7,0.4c-3.1,0.5-6,2.2-9.2,3.1c-0.9,0.1-1.6,0.6-2.5,0.1c0-0.4,0.5-0.6,0.9-0.7c1.7-0.7,3.7-1.2,5.7-2
					c0.4,0,1.1-0.2,1.7-0.5c0.4-0.2,0.9-0.4,1.2-0.4c1.2,0,0.7-1.1,1.2-1.1c1.6-0.5,2.9-1.5,4.5-1.1c0.4,0.2,0.9-0.2,1-0.4
					c1.5-0.6,2.6-1,4.1-1.1c0-0.4,0.1,0,0.4,0.1C771.1,260.3,771.1,260.4,770.8,260.4z"/>
			</g>
		</g>
	</g>
</g>
<g id="Layer_2_1_" class="st2">
</g>
</svg>
