<?xml version="1.0" encoding="utf-8"?>
<!-- Generator: Adobe Illustrator 25.2.1, SVG Export Plug-In . SVG Version: 6.00 Build 0)  -->
<svg version="1.1" id="Group_190" xmlns="http://www.w3.org/2000/svg" xmlns:xlink="http://www.w3.org/1999/xlink" x="0px" y="0px"
	 viewBox="0 0 32 40" style="enable-background:new 0 0 32 40;" xml:space="preserve">
<style type="text/css">
	.st0{fill:#E2E5E7;}
	.st1{fill:#B0B7BD;}
	.st2{fill:#CAD1D8;}
	.st3{fill:#F15642;}
	.st4{fill:#FFFFFF;}
</style>
<g>
	<path id="Path_50" class="st0" d="M6.9,0.7c-1.3,0-2.4,1.1-2.3,2.4v33.9c0,1.3,1,2.4,2.3,2.4h22.8c1.3,0,2.3-1.1,2.3-2.4V10.3
		l-9.1-9.7C22.9,0.7,6.9,0.7,6.9,0.7z"/>
	<path id="Path_51" class="st1" d="M25,10.3h6.9l-9.1-9.7v7.3C22.7,9.1,23.7,10.2,25,10.3z"/>
	<path id="Path_52" class="st2" d="M31.9,17.6L25,10.3h6.9V17.6z"/>
	<path id="Path_53" class="st3" d="M27.3,32.2c0,0.7-0.5,1.2-1.1,1.2H1.1c-0.7,0-1.2-0.6-1.1-1.2V20c0-0.7,0.5-1.2,1.1-1.2h25
		c0.7,0,1.2,0.6,1.1,1.2L27.3,32.2L27.3,32.2z"/>
	<g id="Group_17" transform="translate(6.399 28.75)">
		<path id="Path_54" class="st4" d="M-1.4-5.2c0-0.4,0.3-0.7,0.6-0.7h2.1c1.3,0.1,2.3,1.3,2.2,2.6c0,1.3-1,2.2-2.2,2.3h-1.5v1.3
			c0,0.3-0.2,0.6-0.5,0.7c0,0,0,0-0.1,0c-0.4,0-0.6-0.3-0.6-0.7l0,0L-1.4-5.2z M-0.2-4.6v2.4h1.5c0.6,0,1.1-0.6,1.1-1.2
			C2.5-4,2-4.6,1.3-4.6H-0.2z"/>
		<path id="Path_55" class="st4" d="M5.4,1C5,1,4.8,0.8,4.7,0.4c0,0,0,0,0-0.1v-5.5c0-0.3,0.3-0.6,0.6-0.6h2.1
			c4.2,0,4.1,6.7,0.1,6.7L5.4,1z M5.9-4.6v4.4h1.5c2.5,0,2.6-4.4,0-4.4H5.9z"/>
		<path id="Path_56" class="st4" d="M12.9-4.5V-3h2.3c0.4,0,0.6,0.3,0.7,0.7c0,0.3-0.3,0.6-0.7,0.6h-2.3v2c0,0.3-0.2,0.6-0.5,0.6
			l0,0c-0.3,0-0.6-0.2-0.6-0.5c0,0,0,0,0-0.1v-5.5c0-0.3,0.3-0.6,0.6-0.6c0,0,0,0,0.1,0h3.2c0.3,0,0.6,0.2,0.6,0.5c0,0,0,0,0,0.1
			c0,0.4-0.3,0.7-0.6,0.7l0,0H12.9z"/>
	</g>
	<path id="Path_57" class="st2" d="M26.2,33.4H4.6v1.2h21.6c0.7,0,1.2-0.6,1.1-1.2v-1.2C27.3,32.8,26.8,33.3,26.2,33.4z"/>
</g>
</svg>
