<?xml version="1.0" encoding="utf-8"?>
<!-- Generator: Adobe Illustrator 25.2.1, SVG Export Plug-In . SVG Version: 6.00 Build 0)  -->
<svg version="1.1" id="Layer_1" xmlns="http://www.w3.org/2000/svg" xmlns:xlink="http://www.w3.org/1999/xlink" x="0px" y="0px"
	 viewBox="0 0 76 87" style="enable-background:new 0 0 76 87;" xml:space="preserve">
<style type="text/css">
	.st0{fill-rule:evenodd;clip-rule:evenodd;fill:#00B3E6;}
	.st1{fill:#FFFFFF;}
</style>
<desc>Created with Sketch.</desc>
<g>
	<g id="sign-_x26_-validate">
		<g id="sign" transform="translate(-858.000000, -255.000000)">
			<g id="Group-3" transform="translate(256.000000, 220.000000)">
				<g id="shield" transform="translate(602.000000, 35.000000)">
					<path id="Path" class="st0" d="M74.5,10.9L38.4,0.1c-0.3-0.1-0.7-0.1-1,0L1.3,10.9C0.5,11.1,0,11.8,0,12.6v39.7
						c0,16,24.3,30.2,37.4,34.2c0.4,0.1,0.7,0.1,1.1,0c13-4.1,37.4-18.3,37.4-34.2V12.6C75.8,11.8,75.3,11.1,74.5,10.9z"/>
				</g>
			</g>
		</g>
	</g>
	<g>
		<path class="st1" d="M56.8,57.5c-1.3,0-2.4,1-2.6,2.3l-10.5-0.5c0-0.2,0.1-0.5,0.1-0.7c0-0.4,0-0.7-0.1-1l3.9-2.3
			c0.5,0.7,1.3,1.1,2.1,1.1c1.5,0,2.7-1.2,2.7-2.7c0-1.5-1.2-2.7-2.7-2.7c-1.5,0-2.7,1.2-2.7,2.7c0,0.4,0.1,0.8,0.3,1.1L43.4,57
			c-0.6-1.4-2-2.4-3.6-2.4c-2.2,0-3.9,1.7-3.9,3.9c0,0.5,0.1,0.9,0.2,1.4l-6.7,1.7c0-1-0.5-2-1.2-2.7l1.3-1.7
			c0.3,0.1,0.6,0.2,0.9,0.2c1.5,0,2.7-1.2,2.7-2.7c0-1.5-1.2-2.7-2.7-2.7c-1.5,0-2.7,1.2-2.7,2.7c0,1,0.5,1.8,1.3,2.3l-1.2,1.6
			c-0.6-0.5-1.4-0.8-2.3-0.8c-0.2,0-0.3,0-0.5,0l-1-6.5c1.7-0.4,3-1.9,3-3.8c0-2.2-1.7-3.9-3.9-3.9c-0.6,0-1.3,0.2-1.8,0.4l-3.1-5.8
			c0.7-0.3,1.2-0.8,1.6-1.5l0.1,0l2.4,0.7c0,0.1,0,0.3,0,0.4c0,1.5,1.2,2.7,2.7,2.7s2.7-1.2,2.7-2.7c0-1.5-1.2-2.7-2.7-2.7
			c-1.1,0-2.1,0.7-2.5,1.7l-2.4-0.7c0.2-0.5,0.3-1,0.3-1.6c0-0.3,0-0.5-0.1-0.8l6.7-3.1c0.7,0.8,1.8,1.3,2.9,1.3
			c2.2,0,3.9-1.7,3.9-3.9c0-0.7-0.2-1.4-0.6-2l0,0l4.3-4.2c0.5,0.3,1.1,0.5,1.8,0.6v1.9c-1.3,0.1-2.4,1.3-2.4,2.7
			c0,1.5,1.2,2.7,2.7,2.7c1.5,0,2.7-1.2,2.7-2.7c0-1.4-1.1-2.5-2.4-2.7v-1.9c0.6,0,1.2-0.2,1.6-0.5l0,0l4.7,5.4
			c-0.5,0.7-0.8,1.5-0.8,2.4c0,2.2,1.7,3.9,3.9,3.9s3.9-1.7,3.9-3.9c0-0.5-0.1-0.9-0.2-1.3l1.4-0.9c0.5,0.6,1.2,1,2.1,1
			c1.5,0,2.7-1.2,2.7-2.7c0-1.5-1.2-2.7-2.7-2.7c-1.5,0-2.7,1.2-2.7,2.7c0,0.4,0.1,0.8,0.3,1.2L53,28.2c-0.7-1.2-2-2.1-3.5-2.1
			c-1.1,0-2.1,0.4-2.8,1.1L42.2,22c0.5-0.4,0.9-0.8,1.1-1.4l4.2,0.7c0.3,1.2,1.3,2.1,2.6,2.1c1.5,0,2.7-1.2,2.7-2.7
			c0-1.5-1.2-2.7-2.7-2.7c-1.5,0-2.7,1.2-2.7,2.7c0,0,0,0,0,0l-3.9-0.6c0.1-0.4,0.2-0.8,0.2-1.2c0-2.2-1.7-3.9-3.9-3.9
			c-2.2,0-3.9,1.7-3.9,3.9c0,1.2,0.5,2.3,1.4,3l-4.2,4l0,0c-0.6-0.8-1.6-1.3-2.6-1.4v-3c1.3-0.2,2.2-1.3,2.2-2.6
			c0-1.5-1.2-2.7-2.7-2.7c-1.5,0-2.7,1.2-2.7,2.7c0,1.4,1.1,2.6,2.6,2.7v2.9l0,0c-2.1,0.1-3.8,1.8-3.8,3.9c0,0.8,0.2,1.5,0.6,2.1
			l-6.5,3l-0.1,0c-0.2-0.6-0.6-1.2-1.1-1.7l2.5-4.5l0-0.1c0.2,0.1,0.5,0.1,0.7,0.1c1.5,0,2.7-1.2,2.7-2.7S23.8,22,22.3,22
			c-1.5,0-2.7,1.2-2.7,2.7c0,1,0.6,1.9,1.5,2.4l-2.5,4.4c-0.6-0.4-1.3-0.6-2.1-0.6c-2.2,0-3.9,1.7-3.9,3.9c0,2.2,1.7,3.9,3.9,3.9
			c0.4,0,0.8-0.1,1.2-0.2l3.1,5.8v0.1c-0.8,0.6-1.3,1.4-1.5,2.3l-2.3-0.7l0,0c0.1-0.2,0.1-0.4,0.1-0.7c0-1.5-1.2-2.7-2.7-2.7
			c-1.5,0-2.7,1.2-2.7,2.7c0,1.5,1.2,2.7,2.7,2.7c1.1,0,2-0.6,2.4-1.5l0,0l2.4,0.7c0,0.1,0,0.2,0,0.3c0,1.4,0.7,2.5,1.7,3.2l0,0
			l-1.5,1.9c-0.5-0.4-1-0.6-1.7-0.6c-1.5,0-2.7,1.2-2.7,2.7c0,1.5,1.2,2.7,2.7,2.7c1.5,0,2.7-1.2,2.7-2.7c0-0.6-0.2-1.2-0.6-1.7
			l1.6-2c0.5,0.2,1.1,0.4,1.7,0.4c0.1,0,0.2,0,0.3,0l1,6.4l-0.2,0.2c-1.5,0.5-2.6,2-2.6,3.7c0,2.2,1.7,3.9,3.9,3.9
			c1.3,0,2.4-0.6,3.2-1.6l0.1,0l5.5,2.5c-0.1,0.2-0.1,0.4-0.1,0.7c0,1.5,1.2,2.7,2.7,2.7c1.5,0,2.7-1.2,2.7-2.7
			c0-1.5-1.2-2.7-2.7-2.7c-1.1,0-2,0.6-2.4,1.5L29,63.7c0.2-0.4,0.4-0.9,0.4-1.4l6.8-1.8l0.1,0c0.7,1.2,2,2,3.4,2
			c1,0,1.9-0.4,2.5-0.9l0,0l2.7,2.5c-0.1,0.3-0.2,0.7-0.2,1.1c0,1.5,1.2,2.7,2.7,2.7c1.5,0,2.7-1.2,2.7-2.7c0-1.5-1.2-2.7-2.7-2.7
			c-0.9,0-1.7,0.4-2.2,1.1l-2.6-2.5c0.3-0.4,0.6-0.8,0.8-1.3l10.6,0.5c0.1,1.4,1.2,2.5,2.7,2.5c1.5,0,2.7-1.2,2.7-2.7
			C59.4,58.7,58.2,57.5,56.8,57.5z"/>
	</g>
</g>
</svg>
